<svg width="16" height="19" viewBox="0 0 16 19" fill="none" xmlns="http://www.w3.org/2000/svg">
<path d="M8.00003 9.8457C3.58893 9.8457 0 13.4346 0 17.8458C0 18.1854 0.275712 18.4612 0.615405 18.4612C0.955098 18.4612 1.23081 18.1854 1.23081 17.8457C1.23081 14.1128 4.2671 11.0765 8.00003 11.0765C11.733 11.0765 14.7693 14.1128 14.7693 17.8457C14.7693 18.1854 15.045 18.4611 15.3847 18.4611C15.7244 18.4611 16.0001 18.1854 16.0001 17.8457C16.0001 13.4346 12.4111 9.8457 8.00003 9.8457Z" fill="#A7A7A7"/>
<path d="M8.00009 0C5.62473 0 3.69238 1.93229 3.69238 4.30772C3.69238 6.68314 5.62467 8.61543 8.00009 8.61543C10.3755 8.61543 12.3078 6.68309 12.3078 4.30772C12.3078 1.93235 10.3755 0 8.00009 0ZM8.00009 7.38462C6.30411 7.38462 4.92319 6.0037 4.92319 4.30772C4.92319 2.61173 6.30411 1.23081 8.00009 1.23081C9.69607 1.23081 11.077 2.61173 11.077 4.30772C11.077 6.0037 9.69613 7.38462 8.00009 7.38462Z" fill="#A7A7A7"/>
</svg>
