<svg width="24" height="24" viewBox="0 0 24 24" fill="none" xmlns="http://www.w3.org/2000/svg">
<path d="M16.333 3.99023H13.9763C14.0597 2.95425 13.7069 1.88943 12.9161 1.09865C11.4854 -0.331975 9.15755 -0.331975 7.72683 1.09865L6.99544 1.83004L6.26405 1.09865C4.83333 -0.332069 2.50542 -0.332022 1.07475 1.0987C0.381703 1.7917 0 2.71321 0 3.69332C0 4.67343 0.381656 5.5949 1.07475 6.28795L2.84808 8.06128C2.26153 9.16434 1.95333 10.3959 1.95333 11.6572C1.95333 15.8848 5.39273 19.3242 9.62034 19.3242H10.7662L15.7628 23.9744V19.3242H16.333C20.5606 19.3242 24 15.8848 24 11.6572C24 7.42964 20.5606 3.99023 16.333 3.99023ZM2.06995 2.09385C2.51095 1.65285 3.09009 1.4324 3.66937 1.4324C4.24852 1.4324 4.82789 1.65295 5.2688 2.09385L6.99539 3.82045L8.72198 2.09385C9.60394 1.21199 11.0389 1.21195 11.9209 2.0939C12.3481 2.52112 12.5834 3.08911 12.5834 3.69332C12.5834 4.2975 12.3481 4.86553 11.9209 5.29275L6.99544 10.2182L2.06995 5.29275C1.18805 4.41079 1.18805 2.97581 2.06995 2.09385ZM16.333 17.9168H14.3553V20.7419L11.3198 17.9168H9.62034C6.1688 17.9168 3.3608 15.1088 3.3608 11.6572C3.3608 10.7741 3.54572 9.90919 3.89995 9.11311L6.99548 12.2086L12.9162 6.28795C13.1852 6.01893 13.4035 5.71818 13.5714 5.39765H16.3331C19.7846 5.39765 22.5926 8.20566 22.5926 11.6572C22.5926 15.1088 19.7845 17.9168 16.333 17.9168Z" fill="#A7A7A7"/>
<path d="M9.13818 11.2568H10.6257V12.6643H9.13818V11.2568Z" fill="#A7A7A7"/>
<path d="M12.4226 11.2568H13.9101V12.6643H12.4226V11.2568Z" fill="#A7A7A7"/>
<path d="M15.7068 11.2568H17.1943V12.6643H15.7068V11.2568Z" fill="#A7A7A7"/>
</svg>
