<svg width="100" height="105" viewBox="0 0 100 105" fill="none" xmlns="http://www.w3.org/2000/svg">
<path d="M18.0556 13.8889L0 33.3333L18.0556 48.6111V13.8889Z" fill="#09B162"/>
<path d="M81.9444 13.8889L100 33.3333L81.9444 48.6111V13.8889Z" fill="#09B162"/>
<path d="M18.0555 16.5C18.0555 14.2909 19.8464 12.5 22.0555 12.5H76.9444C79.7059 12.5 81.9444 14.7386 81.9444 17.5V99.1667C81.9444 101.928 79.7059 104.167 76.9444 104.167H23.0555C20.2941 104.167 18.0555 101.928 18.0555 99.1667V16.5Z" fill="#09B363"/>
<path d="M58.3334 0H38.8889V25H58.3334V0Z" fill="#036235"/>
<path d="M18.0555 15.2778H81.9444V93.6111C81.9444 96.3725 79.7059 98.6111 76.9444 98.6111H23.0555C20.2941 98.6111 18.0555 96.3725 18.0555 93.6111V15.2778Z" fill="#9BDFBF"/>
<path d="M31.9444 8.33334C25.2778 8.33334 19.9074 12.037 18.0555 13.8889V27.7778H48.6111L44.4444 11.1111C41.6667 11.1111 38.6111 8.33334 31.9444 8.33334Z" fill="#9BDFBF"/>
<path d="M68.0556 8.33334C74.7222 8.33334 80.0926 12.037 81.9445 13.8889V27.7778H51.3889L52.7778 9.72223C55.5556 9.72223 61.3889 8.33334 68.0556 8.33334Z" fill="#9BDFBF"/>
<path d="M38.8889 23.6111L48.6111 15.2778L38.8889 0L31.9445 8.33333L38.8889 23.6111Z" fill="#09B162"/>
<path d="M58.3333 23.6111L48.6111 15.2778L58.3333 0L65.2778 8.33333L58.3333 23.6111Z" fill="#09B162"/>
</svg>
