<svg width="40" height="40" viewBox="0 0 40 40" fill="none" xmlns="http://www.w3.org/2000/svg">
<rect width="40" height="40" rx="20" fill="#FFECEC"/>
<path d="M25.0914 17.8182C25.0914 17.1497 24.9597 16.4877 24.7038 15.87C24.448 15.2523 24.073 14.6911 23.6003 14.2184C23.1275 13.7457 22.5663 13.3707 21.9487 13.1148C21.331 12.859 20.669 12.7273 20.0005 12.7273C19.3319 12.7273 18.6699 12.859 18.0522 13.1148C17.4346 13.3707 16.8734 13.7457 16.4006 14.2184C15.9279 14.6911 15.5529 15.2523 15.2971 15.87C15.0412 16.4877 14.9095 17.1497 14.9095 17.8182C14.9095 18.8269 15.2077 19.7651 15.7132 20.5564H15.7074C17.4237 23.2437 20.0005 27.2727 20.0005 27.2727L24.2935 20.5564H24.2885C24.8124 19.7392 25.091 18.7889 25.0914 17.8182ZM20.0005 20C19.4218 20 18.8668 19.7702 18.4577 19.361C18.0485 18.9518 17.8186 18.3969 17.8186 17.8182C17.8186 17.2395 18.0485 16.6846 18.4577 16.2754C18.8668 15.8663 19.4218 15.6364 20.0005 15.6364C20.5791 15.6364 21.1341 15.8663 21.5432 16.2754C21.9524 16.6846 22.1823 17.2395 22.1823 17.8182C22.1823 18.3969 21.9524 18.9518 21.5432 19.361C21.1341 19.7702 20.5791 20 20.0005 20Z" fill="#F53838"/>
</svg>
