<svg width="80" height="80" viewBox="0 0 80 80" fill="none" xmlns="http://www.w3.org/2000/svg">
<g clip-path="url(#clip0_1_5082)">
<path d="M65.8787 58.6667H8.56C4.47969 58.6667 1.17188 55.3588 1.17188 51.2785V13.327C1.17188 9.24666 4.47969 5.93884 8.56 5.93884H65.8787C69.9591 5.93884 73.2669 9.24666 73.2669 13.327V51.2785C73.267 55.3588 69.9592 58.6667 65.8787 58.6667Z" fill="#E7ECF6"/>
<path d="M14.4594 58.6711H8.55984C4.47922 58.6711 1.17188 55.3638 1.17188 51.2832V13.331C1.17188 9.25049 4.47922 5.94299 8.55984 5.94299H14.4594C10.3803 5.94299 7.07141 9.25049 7.07141 13.331V51.2832C7.07141 55.3638 10.3803 58.6711 14.4594 58.6711Z" fill="#D8E2F1"/>
<path d="M29.1588 36.0855L29.5435 36.3076L29.1588 36.5296C27.3232 37.5894 26.6943 39.9366 27.7541 41.7722C28.814 43.6079 31.1612 44.2368 32.9968 43.1769L33.3815 42.9549V43.3991C33.3815 45.5186 35.0998 47.2369 37.2193 47.2369C39.3388 47.2369 41.0573 45.5186 41.0573 43.3991V42.9549L41.442 43.1769C43.2776 44.2368 45.6248 43.6079 46.6846 41.7722C47.7445 39.9366 47.1154 37.5894 45.2798 36.5296L44.8951 36.3076L45.2798 36.0855C47.1154 35.0257 47.7443 32.6785 46.6846 30.8429C45.6248 29.0072 43.2776 28.3783 41.442 29.4382L41.0573 29.6602V29.216C41.0573 27.0965 39.339 25.3782 37.2193 25.3782C35.0998 25.3782 33.3815 27.0965 33.3815 29.216V29.6602L32.9968 29.4382C31.1612 28.3783 28.814 29.0072 27.7541 30.8429C26.6943 32.6785 27.3232 35.0257 29.1588 36.0855Z" fill="#00DEDE"/>
<path d="M30.4235 30.8423C30.0754 31.4471 29.9085 32.1073 29.9085 32.7585C29.9085 34.0844 30.5975 35.374 31.8291 36.0848L32.2135 36.3082L31.8291 36.5301C29.9927 37.589 29.3646 39.9362 30.4235 41.7726C30.8891 42.5776 31.6043 43.1521 32.4136 43.4524C31.9785 43.6135 31.5288 43.6918 31.0819 43.6918C29.7561 43.6918 28.465 43.0027 27.7543 41.7726C26.6954 39.936 27.3235 37.589 29.1599 36.5301L29.5443 36.3082L29.1599 36.0848C27.9283 35.374 27.2393 34.0844 27.2393 32.7585C27.2393 32.1073 27.4061 31.4471 27.7543 30.8423C28.7044 29.1973 30.6904 28.5213 32.4136 29.1624C31.6043 29.4627 30.8891 30.0373 30.4235 30.8423Z" fill="#00DEDE"/>
<path d="M38.5538 46.9978C38.1389 47.1529 37.6892 47.2371 37.2192 47.2371C35.1927 47.2371 33.5333 45.6661 33.3911 43.6759C33.51 43.6861 33.6305 43.6918 33.751 43.6918C34.4022 43.6918 35.0608 43.5264 35.6658 43.1768L36.0502 42.955V43.3989C36.05 45.0481 37.0916 46.4551 38.5538 46.9978Z" fill="#00DEDE"/>
<path d="M37.2192 25.3779C37.6892 25.3779 38.1389 25.462 38.5538 25.6173C38.0302 25.8103 37.5616 26.1148 37.1742 26.5021C36.4794 27.197 36.05 28.1559 36.05 29.2162V29.6601L35.6656 29.4381C34.9491 29.0246 34.1555 28.8679 33.3911 28.939C33.4578 27.9889 33.8713 27.1359 34.5052 26.502C35.1999 25.8073 36.1602 25.3779 37.2192 25.3779Z" fill="#00DEDE"/>
<path d="M33.3816 43.3987C33.3816 43.4915 33.3844 43.5844 33.3917 43.6758C33.0581 43.6439 32.7287 43.5684 32.4141 43.4523C32.6114 43.3784 32.8072 43.287 32.9972 43.1767L33.3816 42.9548V43.3987Z" fill="#00DEDE"/>
<path d="M32.4136 29.1624C32.7284 29.0463 33.0576 28.971 33.3912 28.939C33.384 29.0304 33.3811 29.1232 33.3811 29.216V29.6599L32.9967 29.4379C32.8067 29.3279 32.6109 29.2365 32.4136 29.1624Z" fill="#00DEDE"/>
<path d="M37.2194 40.4058C39.4826 40.4058 41.3172 38.5711 41.3172 36.3079C41.3172 34.0447 39.4826 32.2101 37.2194 32.2101C34.9562 32.2101 33.1216 34.0447 33.1216 36.3079C33.1216 38.5711 34.9562 40.4058 37.2194 40.4058Z" fill="#00DEDE"/>
<path d="M61.1578 74.0598C59.4611 74.0598 57.8493 73.277 56.8006 71.9242L47.5807 60.0314C45.715 57.6247 46.1534 54.1611 48.5601 52.2953C50.9671 50.4295 54.4306 50.868 56.2964 53.2747L60.4353 58.6136L68.512 44.3122C70.0097 41.6606 73.3728 40.725 76.0248 42.2225C78.6764 43.72 79.612 47.0836 78.1145 49.7351L65.9597 71.2575C65.052 72.865 63.4 73.9114 61.5589 74.0454C61.4248 74.0549 61.2909 74.0598 61.1578 74.0598Z" fill="#0CEB6C"/>
<path d="M77.9737 44.0772C77.8965 44.0258 77.8155 43.978 77.7348 43.932C75.0826 42.4341 71.719 43.3695 70.221 46.0219L62.1449 60.3233L60.4355 58.6139L68.5116 44.3125C70.0096 41.6603 73.3732 40.7247 76.0254 42.2227C76.8488 42.6877 77.5051 43.3311 77.9737 44.0772Z" fill="#0CEB6C"/>
<path d="M65.1096 72.3906C64.1814 73.3483 62.9224 73.9473 61.5586 74.0467C61.4244 74.0559 61.2904 74.0614 61.158 74.0614C59.4597 74.0614 57.8496 73.2784 56.8002 71.9256L47.5808 60.032C45.7153 57.6261 46.1527 54.1633 48.5605 52.2959C49.2718 51.7427 50.0786 51.3934 50.9077 51.2372C49.0182 53.1744 48.7977 56.2586 50.5033 58.4586L59.7227 70.3522C60.7722 71.705 62.3841 72.488 64.0805 72.488C64.2129 72.488 64.3471 72.4825 64.4811 72.4733C64.6943 72.4586 64.9038 72.4311 65.1096 72.3906Z" fill="#0CEB6C"/>
<path d="M37.2187 41.5775C40.1243 41.5775 42.4882 39.2136 42.4882 36.308C42.4882 33.4024 40.1243 31.0385 37.2187 31.0385C34.3131 31.0385 31.9492 33.4024 31.9492 36.308C31.9492 39.2136 34.313 41.5775 37.2187 41.5775ZM37.2187 33.3824C38.832 33.3824 40.1445 34.6949 40.1445 36.3081C40.1445 37.9214 38.832 39.2339 37.2187 39.2339C35.6054 39.2339 34.293 37.9214 34.293 36.3081C34.293 34.6949 35.6054 33.3824 37.2187 33.3824Z" fill="#323232"/>
<path d="M79.7526 45.2324C79.2742 43.5118 78.1541 42.0807 76.5994 41.2031C75.9172 40.8176 75.187 40.5589 74.4372 40.4303V13.3273C74.4372 9.62232 72.0747 6.35497 68.5586 5.19732C67.9433 4.99435 67.2812 5.32919 67.0791 5.94388C66.8767 6.55857 67.2109 7.22107 67.8256 7.42341C70.2055 8.207 71.8567 10.3225 72.0695 12.7856L48.2948 31.906C48.1973 31.3406 48.0014 30.7828 47.6981 30.2575C46.5403 28.2523 44.1964 27.3495 42.0589 27.9239C41.4875 25.7859 39.5337 24.207 37.2183 24.207C34.9028 24.207 32.9491 25.7861 32.3777 27.9239C30.2411 27.35 27.8961 28.2523 26.7384 30.2575C26.4353 30.7825 26.2394 31.3401 26.1419 31.9054L2.36875 12.7861C2.64406 9.61138 5.31453 7.11169 8.55922 7.11169H63.5342C64.1814 7.11169 64.7061 6.58701 64.7061 5.93982C64.7061 5.29263 64.1816 4.76794 63.5342 4.76794H8.55922C3.83969 4.7681 0 8.60763 0 13.3273V51.2779C0 55.9984 3.83969 59.8387 8.55922 59.8387H46.0605C46.2311 60.1534 46.428 60.4587 46.6541 60.7506L47.3994 61.7115C47.7959 62.2229 48.5323 62.3159 49.0434 61.9193C49.5548 61.5226 49.6478 60.7865 49.2511 60.2751L48.5062 59.3148C47.0398 57.4221 47.3853 54.6884 49.2759 53.2215C51.1687 51.7549 53.9026 52.1007 55.3692 53.9928L59.5083 59.3317C59.7487 59.6417 60.1278 59.8118 60.5195 59.7824C60.9108 59.754 61.2619 59.5317 61.4547 59.1899L69.5312 44.8884C70.1012 43.8787 71.0305 43.1514 72.1478 42.8406C73.2655 42.5296 74.4369 42.6729 75.447 43.2439C76.4569 43.8139 77.1841 44.7431 77.4948 45.8606C77.8055 46.9781 77.6623 48.1495 77.0917 49.1595L64.9372 70.6807C64.2205 71.9502 62.9256 72.7707 61.4631 72.8763C61.3667 72.8841 61.2634 72.8882 61.1562 72.8882C59.805 72.8882 58.5541 72.2749 57.7247 71.2062L52.1203 63.9752C51.7241 63.4637 50.988 63.3706 50.4762 63.767C49.9648 64.1634 49.8714 64.8995 50.268 65.411L55.8728 72.6426C57.1498 74.288 59.0755 75.2319 61.1562 75.2319C61.3264 75.2319 61.4933 75.2254 61.6422 75.2132C63.8795 75.0518 65.8742 73.7882 66.9778 71.8332L79.132 50.3123C80.0108 48.7571 80.2311 46.9532 79.7526 45.2324ZM28.7683 31.4293C29.5033 30.1562 31.1372 29.7184 32.4102 30.4536L32.7947 30.6756C33.1572 30.885 33.6041 30.885 33.9666 30.6756C34.3291 30.4662 34.5525 30.0795 34.5525 29.6607V29.2167C34.5525 27.7467 35.7484 26.5507 37.2184 26.5507C38.6884 26.5507 39.8844 27.7467 39.8844 29.2167V29.6607C39.8844 30.0793 40.1078 30.4662 40.4702 30.6756C40.833 30.885 41.2795 30.8848 41.642 30.6756L42.0269 30.4536C43.3005 29.7187 44.9336 30.1564 45.6686 31.4293C46.4036 32.7025 45.9658 34.336 44.6928 35.071L44.3081 35.2931C43.9456 35.5025 43.7222 35.8892 43.7222 36.3079C43.7222 36.7267 43.9456 37.1134 44.3081 37.3228L44.6928 37.5448C45.9658 38.2798 46.4036 39.9134 45.6686 41.1865C44.9336 42.4596 43.2998 42.8971 42.0267 42.1621L41.642 41.9401C41.2795 41.7307 40.833 41.7309 40.4702 41.9401C40.1078 42.1495 39.8844 42.5364 39.8844 42.9549V43.399C39.8844 44.869 38.6884 46.0649 37.2184 46.0649C35.7484 46.0649 34.5525 44.869 34.5525 43.399V42.9549C34.5525 42.5362 34.3291 42.1495 33.9666 41.9401C33.6041 41.7307 33.1572 41.7307 32.7947 41.9401L32.4102 42.1621C31.1373 42.897 29.5036 42.4595 28.7683 41.1864C28.0334 39.9134 28.4712 38.2796 29.7444 37.5446L30.1289 37.3226C30.4914 37.1132 30.7147 36.7265 30.7147 36.3079C30.7147 35.8893 30.4914 35.5025 30.1289 35.2932L29.7444 35.0712C28.4714 34.336 28.0334 32.7025 28.7683 31.4293ZM22.8966 32.3029L2.34375 48.8323V15.7736L22.8966 32.3029ZM60.2806 56.5026L57.2214 52.5565C54.9628 49.6434 50.7544 49.1104 47.8397 51.369C45.9073 52.8684 45.0245 55.2263 45.3084 57.4946H8.55922C5.31469 57.4946 2.64437 54.9946 2.36875 51.8195L24.7662 33.8064L26.8941 35.5176C27.0792 35.7996 27.2941 36.0648 27.5373 36.3078C25.9716 37.8715 25.5809 40.3529 26.7386 42.3582C27.8964 44.3635 30.2408 45.2659 32.3778 44.6918C32.9492 46.8298 34.903 48.4087 37.2184 48.4087C39.5339 48.4087 41.4877 46.8296 42.0591 44.6918C44.1961 45.2656 46.5406 44.3632 47.6983 42.3582C48.8559 40.3529 48.4653 37.8715 46.8997 36.3078C47.1425 36.0653 47.3569 35.8006 47.5419 35.5192L49.6716 33.8064L65.7811 46.7629L60.2806 56.5026ZM67.4903 43.736L66.9489 44.6948L51.5411 32.3028L72.0933 15.7737V40.4509C71.9014 40.4867 71.71 40.5296 71.5197 40.5826C69.7991 41.0612 68.368 42.1812 67.4903 43.736Z" fill="#323232"/>
</g>
<defs>
<clipPath id="clip0_1_5082">
<rect width="80" height="80" fill="white"/>
</clipPath>
</defs>
</svg>
