<svg width="14" height="14" viewBox="0 0 14 14" fill="none" xmlns="http://www.w3.org/2000/svg">
<path d="M4.54156 4.58163H6.62015C7.17033 4.58163 7.63887 4.93675 7.80938 5.42973H4.54156V6.25004H7.80938C7.63887 6.74299 7.17036 7.09813 6.62015 7.09813H4.54156V7.9969L7.76785 11.2232L8.34789 10.6431L5.6232 7.91845H6.62012C7.62585 7.91845 8.46686 7.20037 8.65783 6.25004H9.45931V5.42973H8.6577C8.59461 5.1159 8.46096 4.82732 8.27354 4.58163H9.45928V3.76132H4.5415V4.58163H4.54156Z" fill="#263238"/>
<path d="M11.9498 2.05023C10.6276 0.728137 8.86977 0 7 0C5.13023 0 3.37239 0.728137 2.05023 2.05023C0.728137 3.37239 0 5.13023 0 7C0 8.86977 0.728137 10.6276 2.05023 11.9498C3.37239 13.2719 5.13023 14 7 14C8.86977 14 10.6276 13.2719 11.9498 11.9498C13.2719 10.6276 14 8.86977 14 7C14 5.13023 13.2719 3.37239 11.9498 2.05023ZM11.3697 11.3697C10.2025 12.5369 8.65066 13.1797 7 13.1797C5.34934 13.1797 3.7975 12.5369 2.6303 11.3697C1.46311 10.2025 0.820312 8.65066 0.820312 7C0.820312 5.34934 1.46311 3.7975 2.6303 2.6303C3.7975 1.46311 5.34934 0.820312 7 0.820312C8.65066 0.820312 10.2025 1.46311 11.3697 2.6303C12.5369 3.7975 13.1797 5.34934 13.1797 7C13.1797 8.65066 12.5369 10.2025 11.3697 11.3697Z" fill="#263238"/>
</svg>
