<svg width="46" height="46" viewBox="0 0 46 46" fill="none" xmlns="http://www.w3.org/2000/svg">
<rect x="0.939392" y="0.519043" width="44.5038" height="44.5038" rx="22.2519" fill="#FFECEC"/>
<path fill-rule="evenodd" clip-rule="evenodd" d="M23.1918 21.8001C23.9644 21.8001 24.7053 21.4932 25.2516 20.9469C25.7979 20.4006 26.1048 19.6597 26.1048 18.8871C26.1048 18.1145 25.7979 17.3736 25.2516 16.8273C24.7053 16.281 23.9644 15.9741 23.1918 15.9741C22.4193 15.9741 21.6783 16.281 21.1321 16.8273C20.5858 17.3736 20.2789 18.1145 20.2789 18.8871C20.2789 19.6597 20.5858 20.4006 21.1321 20.9469C21.6783 21.4932 22.4193 21.8001 23.1918 21.8001ZM19.064 30.539C17.5899 30.539 16.3482 29.2998 16.9123 27.9379C17.2539 27.1133 17.7545 26.364 18.3857 25.7328C19.0168 25.1017 19.7661 24.601 20.5908 24.2594C21.4154 23.9179 22.2993 23.7421 23.1918 23.7421C24.0844 23.7421 24.9683 23.9179 25.7929 24.2594C26.6176 24.601 27.3669 25.1017 27.998 25.7328C28.6292 26.364 29.1298 27.1133 29.4714 27.9379C30.0355 29.2998 28.7938 30.539 27.3197 30.539H19.064Z" fill="#F53838"/>
</svg>
