<svg width="100" height="98" viewBox="0 0 100 98" fill="none" xmlns="http://www.w3.org/2000/svg">
<path d="M17.1056 56.2625V12.842C17.1056 8.89465 19.474 1 28.9476 1C38.4211 1 49.5614 1 53.9473 1C57.8946 1 65.7893 3.36839 65.7893 12.842C65.7893 22.3155 65.7893 37.8417 65.7893 44.4206" stroke="#09B162" stroke-width="2"/>
<rect x="10.527" y="49.6842" width="13.1577" height="44.7363" rx="2" fill="#FFC200"/>
<rect x="60.526" y="15.473" width="10.5262" height="13.1577" fill="#09B162"/>
<path d="M0 89.0261C0 87.6454 1.11929 86.5261 2.5 86.5261H31.7101C33.0908 86.5261 34.2101 87.6454 34.2101 89.0261V97.0523H0V89.0261Z" fill="#09B162"/>
<path d="M55.2637 28C55.2637 26.8954 56.1591 26 57.2637 26H91.5C96.1944 26 100 29.8056 100 34.5V93.0518C100 95.261 98.2092 97.0518 96 97.0518H58.2637C56.6068 97.0518 55.2637 95.7087 55.2637 94.0518V28Z" fill="#FFC200"/>
<path d="M71.0518 26H91.4989C96.1933 26 99.9989 29.8056 99.9989 34.5V93.0518C99.9989 95.261 98.208 97.0518 95.9989 97.0518H71.0518V26Z" fill="#09B162"/>
<circle cx="61.8417" cy="82.5782" r="14.4735" fill="#30334F"/>
<circle cx="61.8409" cy="82.5788" r="9.21043" fill="#9BDFBF"/>
</svg>
