<svg width="38" height="38" viewBox="0 0 38 38" fill="none" xmlns="http://www.w3.org/2000/svg">
<rect width="38" height="38" rx="19" fill="#FFECEC"/>
<path d="M24.5266 12.7817H13.4721C13.1056 12.7817 12.7541 12.9273 12.495 13.1865C12.2359 13.4456 12.0903 13.7971 12.0903 14.1636V16.9272C12.0903 17.2937 12.2359 17.6451 12.495 17.9043C12.7541 18.1634 13.1056 18.309 13.4721 18.309H24.5266C24.8931 18.309 25.2446 18.1634 25.5037 17.9043C25.7629 17.6451 25.9085 17.2937 25.9085 16.9272V14.1636C25.9085 13.7971 25.7629 13.4456 25.5037 13.1865C25.2446 12.9273 24.8931 12.7817 24.5266 12.7817ZM21.0721 15.5454C21.0721 15.927 20.7628 16.2363 20.3812 16.2363C19.9996 16.2363 19.6903 15.927 19.6903 15.5454C19.6903 15.1638 19.9996 14.8545 20.3812 14.8545C20.7628 14.8545 21.0721 15.1638 21.0721 15.5454ZM23.8357 15.5454C23.8357 15.927 23.5264 16.2363 23.1448 16.2363C22.7632 16.2363 22.4539 15.927 22.4539 15.5454C22.4539 15.1638 22.7632 14.8545 23.1448 14.8545C23.5264 14.8545 23.8357 15.1638 23.8357 15.5454ZM24.5266 19.6908H13.4721C13.1056 19.6908 12.7541 19.8364 12.495 20.0956C12.2359 20.3547 12.0903 20.7062 12.0903 21.0726V23.8363C12.0903 24.2028 12.2359 24.5542 12.495 24.8134C12.7541 25.0725 13.1056 25.2181 13.4721 25.2181H24.5266C24.8931 25.2181 25.2446 25.0725 25.5037 24.8134C25.7629 24.5542 25.9085 24.2028 25.9085 23.8363V21.0726C25.9085 20.7062 25.7629 20.3547 25.5037 20.0956C25.2446 19.8364 24.8931 19.6908 24.5266 19.6908ZM21.0721 22.4545C21.0721 22.836 20.7628 23.1454 20.3812 23.1454C19.9996 23.1454 19.6903 22.836 19.6903 22.4545C19.6903 22.0729 19.9996 21.7636 20.3812 21.7636C20.7628 21.7636 21.0721 22.0729 21.0721 22.4545ZM23.8357 22.4545C23.8357 22.836 23.5264 23.1454 23.1448 23.1454C22.7632 23.1454 22.4539 22.836 22.4539 22.4545C22.4539 22.0729 22.7632 21.7636 23.1448 21.7636C23.5264 21.7636 23.8357 22.0729 23.8357 22.4545Z" fill="#F53838"/>
</svg>
