<svg width="101" height="99" viewBox="0 0 101 99" fill="none" xmlns="http://www.w3.org/2000/svg">
<path d="M51.9481 62.3377V38.961L100 35.0649V14.2857H3.89612" stroke="#036235" stroke-linecap="round" stroke-linejoin="round"/>
<path d="M44.1559 57.1429H59.7403V95.7013C59.7403 97.3582 58.3972 98.7013 56.7403 98.7013H47.1559C45.499 98.7013 44.1559 97.3581 44.1559 95.7013V57.1429Z" fill="#09B162"/>
<rect y="5.19479" width="12.987" height="18.1818" rx="1" fill="#09B162"/>
<path d="M12.9871 50.6493V24.6753L42.8572 23.3766V49.3506C42.8572 50.2164 41.8182 51.948 37.6624 51.948C33.5065 51.948 31.6018 50.2164 31.1689 49.3506V40.2597H25.9741V50.6493C25.5412 51.948 23.6364 54.5454 19.4806 54.5454C15.3247 54.5454 13.42 51.948 12.9871 50.6493Z" fill="#FFC200"/>
<path d="M19.4806 57.1429C24.3807 64.9351 31.2409 80.5195 19.4806 80.5195C7.7202 80.5195 14.5804 64.9351 19.4806 57.1429Z" fill="#FFC200"/>
<rect x="7.79224" width="85.7143" height="28.5714" rx="2" fill="#9BDFBF"/>
</svg>
